<svg id="svg" version="1.1" xmlns="http://www.w3.org/2000/svg" xmlns:xlink="http://www.w3.org/1999/xlink" width="400" height="400" viewBox="0, 0, 400,400"><g id="svgg"><path id="path0" d="M325.000 26.127 C 300.896 35.040,283.958 52.883,280.478 73.029 C 280.054 75.481,279.997 82.128,280.082 119.363 L 280.180 162.833 281.072 166.195 C 285.571 183.162,297.786 196.757,317.260 206.473 C 325.804 210.736,328.040 210.917,334.684 207.890 C 354.662 198.786,367.905 185.620,373.297 169.499 C 375.279 163.574,375.333 162.749,375.333 138.469 C 375.333 113.058,375.453 114.152,372.317 111.016 C 369.163 107.861,370.111 107.967,345.879 108.074 L 324.833 108.167 323.426 108.919 C 316.956 112.376,315.645 120.364,320.804 124.904 C 323.732 127.482,323.578 127.461,340.595 127.590 L 355.690 127.704 355.595 144.435 L 355.500 161.167 354.306 164.223 C 350.696 173.469,342.134 182.007,330.919 187.545 L 327.671 189.148 325.085 187.874 C 312.677 181.758,304.559 173.557,300.575 163.112 L 299.833 161.167 299.744 118.912 C 299.644 71.832,299.514 74.725,301.964 69.496 C 305.920 61.055,313.458 53.796,324.139 48.143 L 327.617 46.302 330.559 47.783 C 340.530 52.803,348.362 59.960,352.503 67.837 C 356.293 75.046,364.753 76.670,369.633 71.126 C 374.687 65.385,371.728 56.928,360.684 45.553 C 350.362 34.922,330.483 24.100,325.000 26.127 M75.555 168.615 C 70.752 171.273,70.307 171.674,70.258 173.400 C 70.164 176.704,73.096 176.750,78.992 173.538 C 84.839 170.353,86.056 168.660,83.856 166.769 C 82.257 165.393,80.788 165.720,75.555 168.615 M35.158 184.107 C 26.671 188.526,25.922 190.511,26.065 208.204 L 26.167 220.833 27.236 223.091 C 29.102 227.029,34.650 231.521,38.133 231.914 C 42.373 232.392,50.526 225.132,50.269 221.107 L 50.167 219.500 48.270 219.401 C 46.580 219.312,46.330 219.384,45.969 220.067 C 45.167 221.582,42.603 224.296,40.802 225.536 L 38.966 226.801 37.445 225.984 C 31.715 222.906,31.350 221.799,31.341 207.482 L 31.333 195.798 32.196 194.066 C 33.110 192.233,34.850 190.542,37.301 189.105 L 38.790 188.233 40.145 188.955 C 41.853 189.864,43.657 191.564,45.360 193.870 C 48.445 198.045,52.404 194.906,49.634 190.482 C 47.566 187.178,44.907 185.031,40.977 183.491 C 38.315 182.448,38.352 182.444,35.158 184.107 M74.141 184.018 C 70.325 185.905,67.983 188.101,66.426 191.251 L 65.167 193.799 65.167 207.483 L 65.167 221.167 66.143 223.167 C 68.068 227.112,74.310 231.985,77.451 231.996 C 81.107 232.008,88.539 225.782,89.516 221.889 C 90.285 218.825,85.675 218.221,83.770 221.136 C 82.398 223.237,80.336 225.334,78.862 226.128 L 77.704 226.752 76.123 225.825 C 71.335 223.019,70.333 221.100,70.333 214.728 L 70.333 210.000 79.682 210.000 L 89.030 210.000 89.873 209.158 L 90.715 208.316 90.607 201.389 L 90.500 194.462 89.251 191.937 C 87.584 188.566,84.702 185.847,80.849 184.007 C 77.423 182.372,77.469 182.372,74.141 184.018 M113.100 184.015 C 109.488 185.763,106.697 188.345,105.256 191.274 L 104.167 193.487 104.167 207.493 L 104.167 221.500 105.302 223.594 C 107.364 227.397,113.444 232.007,116.382 231.996 C 119.917 231.982,125.974 227.042,128.084 222.450 C 129.095 220.250,129.434 207.212,128.517 205.812 L 127.976 204.986 121.273 205.076 L 114.571 205.167 113.909 206.054 C 112.000 208.613,113.915 210.000,119.357 210.000 L 123.715 210.000 123.607 214.917 C 123.468 221.296,122.461 223.334,118.222 225.819 L 116.712 226.703 115.309 225.987 C 113.443 225.036,110.776 222.505,109.885 220.842 C 108.768 218.755,108.768 196.245,109.885 194.158 C 110.772 192.502,113.441 189.965,115.288 189.023 C 117.361 187.965,120.460 189.796,122.393 193.221 C 124.388 196.756,128.303 196.649,128.405 193.057 C 128.479 190.442,124.714 186.353,120.218 184.166 C 116.501 182.358,116.523 182.358,113.100 184.015 M151.803 184.152 C 147.019 186.492,143.822 190.331,142.987 194.737 C 142.423 197.709,142.580 218.528,143.184 220.847 C 144.486 225.845,151.190 232.000,155.333 232.000 C 159.174 232.000,167.318 224.737,167.330 221.302 C 167.340 218.609,163.251 218.454,161.565 221.083 C 160.241 223.146,158.236 225.029,156.326 226.004 L 154.955 226.703 153.549 225.880 C 149.295 223.387,147.938 220.567,148.071 214.500 L 148.167 210.167 157.370 210.078 C 168.844 209.968,167.791 210.658,167.945 203.148 C 168.174 191.975,166.041 187.631,158.541 184.001 C 155.156 182.362,155.475 182.355,151.803 184.152 M183.500 184.065 C 183.133 184.273,182.723 184.606,182.588 184.805 C 182.454 185.004,182.341 195.116,182.338 207.276 L 182.333 229.385 183.308 230.359 C 183.844 230.895,184.605 231.333,185.000 231.333 C 185.395 231.333,186.156 230.895,186.692 230.359 L 187.667 229.385 187.667 219.717 L 187.667 210.049 192.417 209.941 C 201.661 209.731,205.678 205.937,205.940 197.167 C 206.156 189.900,203.205 185.569,197.049 184.120 C 194.669 183.560,184.464 183.518,183.500 184.065 M79.855 189.529 C 83.875 192.197,84.650 193.926,84.659 200.250 L 84.667 205.000 77.500 205.000 L 70.333 205.000 70.333 200.323 C 70.333 194.033,71.098 192.437,75.468 189.608 C 77.858 188.060,77.648 188.064,79.855 189.529 M156.841 189.300 C 161.419 191.926,162.500 194.001,162.500 200.167 L 162.500 204.833 155.333 204.833 L 148.167 204.833 148.071 200.500 C 147.938 194.436,149.086 191.979,153.315 189.279 C 155.107 188.136,154.808 188.134,156.841 189.300 M196.034 189.379 C 199.423 190.514,200.664 192.448,200.665 196.597 C 200.668 202.829,198.081 205.000,190.650 205.000 L 187.667 205.000 187.667 197.000 L 187.667 189.000 191.284 189.000 C 193.273 189.000,195.410 189.171,196.034 189.379 M80.667 238.843 C 80.208 239.113,77.941 240.217,75.629 241.296 C 70.249 243.805,68.864 245.796,71.212 247.642 C 72.863 248.941,79.300 246.620,83.950 243.049 C 86.466 241.116,83.422 237.217,80.667 238.843 M35.042 256.607 C 31.459 258.574,28.761 261.217,27.293 264.199 L 26.167 266.486 26.167 279.826 L 26.167 293.167 27.092 295.143 C 29.172 299.583,35.084 304.333,38.530 304.333 C 41.973 304.333,48.422 299.289,50.486 294.982 L 51.667 292.519 51.667 285.651 C 51.667 276.649,52.306 277.333,43.895 277.333 C 36.858 277.333,36.333 277.504,36.333 279.796 C 36.333 282.087,37.040 282.449,41.827 282.608 L 46.073 282.750 45.945 287.291 C 45.772 293.400,44.054 296.549,39.778 298.592 C 37.980 299.452,33.818 296.521,32.186 293.246 L 31.333 291.536 31.333 279.833 L 31.333 268.131 32.196 266.400 C 33.165 264.454,35.053 262.673,37.436 261.455 L 39.038 260.636 40.269 261.396 C 42.061 262.501,43.924 264.261,45.360 266.204 C 47.608 269.245,50.333 268.764,50.333 265.325 C 50.333 262.570,47.113 259.159,42.034 256.536 C 38.457 254.688,38.538 254.688,35.042 256.607 M74.562 256.261 C 65.702 260.996,64.935 262.957,65.068 280.532 L 65.167 293.500 66.139 295.500 C 68.072 299.474,74.321 304.333,77.498 304.333 C 82.985 304.333,92.381 293.988,88.689 292.012 C 87.166 291.197,84.245 292.036,83.808 293.413 C 83.509 294.356,80.177 297.800,78.898 298.489 L 77.745 299.109 76.144 298.171 C 71.370 295.373,70.333 293.421,70.333 287.228 L 70.333 282.667 78.583 282.659 C 91.469 282.646,90.755 283.180,90.607 273.684 C 90.468 264.776,89.163 261.959,83.342 258.006 C 78.617 254.797,77.658 254.607,74.562 256.261 M152.184 256.417 C 149.197 257.991,145.797 260.984,144.519 263.164 C 142.707 266.256,142.641 267.092,142.741 285.489 L 142.833 302.393 143.620 303.030 C 144.716 303.917,146.189 303.842,147.182 302.848 L 148.000 302.030 148.000 292.348 L 148.000 282.667 155.333 282.667 L 162.667 282.667 162.667 292.348 L 162.667 302.030 163.485 302.848 C 164.478 303.842,165.951 303.917,167.046 303.029 L 167.833 302.392 167.833 284.595 L 167.833 266.798 166.585 264.272 C 165.006 261.078,162.187 258.359,158.428 256.403 C 155.159 254.702,155.439 254.702,152.184 256.417 M105.833 256.382 C 105.467 256.599,105.056 256.939,104.922 257.138 C 104.787 257.337,104.675 267.519,104.672 279.765 L 104.667 302.030 105.485 302.848 C 106.495 303.859,108.073 303.927,109.000 303.000 C 109.637 302.363,109.667 301.889,109.667 292.500 L 109.667 282.667 112.583 282.667 L 115.500 282.667 119.525 292.917 L 123.551 303.167 124.753 303.470 C 126.341 303.871,127.503 303.125,128.030 301.364 C 128.409 300.098,128.311 299.788,124.706 290.946 C 120.488 280.599,120.647 281.226,122.083 280.634 C 130.660 277.097,130.420 261.537,121.722 257.253 L 119.517 256.167 113.008 256.077 C 108.449 256.014,106.300 256.106,105.833 256.382 M183.667 256.216 C 182.328 256.735,182.333 256.636,182.333 279.746 L 182.333 302.030 183.152 302.848 L 183.970 303.667 192.402 303.656 C 201.246 303.645,201.478 303.609,202.279 302.105 C 202.878 300.980,202.749 300.365,201.692 299.308 L 200.718 298.333 194.192 298.333 L 187.667 298.333 187.667 278.037 C 187.667 259.201,187.625 257.689,187.083 257.027 C 186.494 256.306,184.596 255.855,183.667 256.216 M215.954 256.637 L 215.167 257.275 215.167 279.833 L 215.167 302.392 215.984 303.054 C 216.747 303.672,217.224 303.709,223.160 303.608 L 229.518 303.500 231.745 302.403 C 234.167 301.209,235.861 299.502,237.082 297.025 C 237.830 295.507,237.833 295.423,237.833 279.667 L 237.833 263.833 236.951 262.167 C 234.372 257.292,231.302 256.000,222.300 256.000 C 217.323 256.000,216.658 256.067,215.954 256.637 M79.045 261.356 C 83.285 263.519,84.650 266.249,84.659 272.583 L 84.667 277.333 77.500 277.333 L 70.333 277.333 70.333 272.656 C 70.333 266.350,71.114 264.732,75.500 261.944 C 77.867 260.440,77.400 260.517,79.045 261.356 M156.405 261.370 C 161.033 263.731,162.726 266.890,162.593 272.918 L 162.500 277.167 155.250 277.257 L 148.000 277.346 148.003 272.757 C 148.008 266.577,149.300 263.977,153.667 261.367 C 155.073 260.526,154.750 260.525,156.405 261.370 M119.180 261.960 C 122.009 263.245,123.150 265.637,122.952 269.866 C 122.687 275.513,120.709 277.167,114.222 277.167 L 109.833 277.167 109.743 269.674 C 109.694 265.553,109.727 261.991,109.816 261.758 C 110.093 261.037,117.500 261.197,119.180 261.960 M229.180 261.960 C 232.812 263.610,232.996 264.471,232.996 279.833 C 232.996 297.597,232.645 298.333,224.177 298.333 L 220.333 298.333 220.333 279.833 L 220.333 261.333 224.083 261.341 C 226.998 261.346,228.133 261.484,229.180 261.960 M35.563 326.658 C 32.589 328.166,30.380 329.935,28.815 332.061 C 26.131 335.707,26.167 335.459,26.167 350.333 L 26.167 363.500 27.092 365.477 C 28.830 369.186,31.269 371.481,36.138 373.985 L 38.652 375.279 41.367 373.815 C 49.896 369.217,51.659 366.163,51.663 355.975 C 51.668 346.984,52.306 347.667,43.895 347.667 C 36.858 347.667,36.333 347.838,36.333 350.130 C 36.333 352.338,36.969 352.650,41.667 352.747 L 45.833 352.833 45.830 357.500 C 45.826 363.747,44.461 366.365,39.934 368.802 L 38.757 369.436 36.740 368.211 C 31.529 365.045,31.350 364.447,31.341 350.149 L 31.333 338.464 32.196 336.733 C 33.168 334.782,35.054 333.006,37.458 331.777 L 39.083 330.947 40.899 332.197 C 41.898 332.885,43.625 334.547,44.736 335.891 C 48.613 340.578,52.639 338.483,49.392 333.468 C 45.536 327.514,39.619 324.600,35.563 326.658 M75.100 326.317 C 71.182 328.096,67.734 331.274,66.088 334.625 L 65.167 336.500 65.167 350.167 L 65.167 363.833 66.139 365.833 C 67.590 368.816,70.847 371.871,74.588 373.758 L 77.621 375.288 80.556 373.727 C 84.463 371.650,87.946 368.370,89.417 365.381 L 90.500 363.181 90.500 350.174 L 90.500 337.167 89.530 335.167 C 86.664 329.259,78.988 324.552,75.100 326.317 M106.105 326.656 C 104.674 327.258,104.667 327.379,104.667 350.478 C 104.667 377.383,103.528 374.089,112.774 373.941 C 121.828 373.796,124.822 372.408,127.205 367.249 L 128.167 365.167 128.167 350.333 L 128.167 335.500 127.233 333.500 C 126.019 330.897,123.752 328.619,121.203 327.441 C 119.040 326.442,107.980 325.866,106.105 326.656 M144.078 326.679 C 142.682 327.240,142.649 327.830,142.743 350.900 C 142.831 372.390,142.853 373.068,143.480 373.527 C 144.414 374.210,146.106 374.108,147.122 373.309 L 148.000 372.618 147.989 350.392 C 147.978 326.913,148.021 327.564,146.439 326.721 C 145.591 326.270,145.118 326.261,144.078 326.679 M163.562 327.268 L 162.667 328.203 162.672 350.352 C 162.675 362.533,162.787 372.665,162.922 372.867 C 163.678 373.999,166.249 374.370,167.143 373.476 C 167.431 373.188,167.697 372.926,167.735 372.893 C 167.772 372.860,167.885 366.100,167.985 357.870 L 168.167 342.907 175.287 357.870 C 183.050 374.185,182.944 374.000,184.524 374.000 C 187.814 374.000,187.667 375.128,187.667 349.991 L 187.667 328.282 186.692 327.308 C 185.561 326.176,184.409 326.062,183.287 326.970 L 182.500 327.607 182.333 342.989 L 182.167 358.370 174.838 342.981 C 166.452 325.370,165.993 324.731,163.562 327.268 M79.855 332.196 C 84.516 335.289,84.668 335.861,84.659 350.239 C 84.650 364.690,84.593 364.903,79.822 368.190 L 77.955 369.475 76.440 368.671 C 70.624 365.586,70.333 364.708,70.333 350.217 C 70.333 335.785,70.399 335.556,75.468 332.274 C 77.858 330.727,77.648 330.731,79.855 332.196 M119.099 332.117 C 122.812 333.668,123.062 334.900,122.938 351.029 L 122.833 364.558 121.879 365.934 C 120.327 368.173,118.884 368.667,113.895 368.667 L 109.667 368.667 109.667 350.389 C 109.667 340.336,109.767 332.011,109.889 331.889 C 110.319 331.459,117.979 331.649,119.099 332.117 " stroke="none" fill="#fbfbfb" fill-rule="evenodd"></path><path id="path1" d="M79.083 79.084 L -0.000 158.167 -0.000 279.084 L 0.000 400.000 121.750 400.000 L 243.501 400.000 321.750 321.750 L 400.000 243.499 400.000 121.750 L 400.000 0.000 279.083 0.000 L 158.166 0.000 79.083 79.084 M335.000 28.096 C 356.030 37.505,373.437 55.059,372.197 65.607 C 370.941 76.295,357.351 77.906,352.322 67.963 C 348.749 60.897,342.102 54.554,332.556 49.101 C 327.616 46.279,327.883 46.310,324.424 48.173 C 313.248 54.191,305.349 61.930,301.825 70.315 C 299.721 75.321,299.833 72.624,299.833 118.167 L 299.833 159.833 300.614 162.333 C 303.771 172.439,312.373 181.307,325.365 187.849 L 327.687 189.019 331.094 187.272 C 343.123 181.103,351.418 172.401,354.708 162.500 C 355.470 160.207,355.485 159.889,355.593 143.917 L 355.702 127.667 340.697 127.667 C 323.227 127.667,323.301 127.678,320.121 124.498 C 315.471 119.848,316.855 112.410,323.000 109.026 L 325.167 107.833 346.333 107.833 L 367.500 107.833 369.333 108.704 C 371.665 109.812,373.521 111.668,374.629 114.000 L 375.500 115.833 375.500 138.667 C 375.500 163.614,375.523 163.257,373.490 169.523 C 368.557 184.723,356.364 197.370,337.833 206.507 C 328.198 211.258,326.656 211.310,318.175 207.173 C 297.558 197.115,284.530 182.480,280.611 164.973 L 279.833 161.500 279.833 117.833 L 279.833 74.167 280.720 70.468 C 285.227 51.671,299.905 36.309,322.167 27.089 C 327.630 24.826,327.705 24.832,335.000 28.096 M84.187 166.686 C 86.338 168.707,84.962 170.578,78.951 173.805 C 73.679 176.636,72.459 176.860,70.801 175.303 C 68.866 173.485,69.897 171.526,73.956 169.303 C 75.722 168.335,77.917 167.114,78.833 166.589 C 80.855 165.431,82.891 165.468,84.187 166.686 M39.588 182.639 C 39.906 182.807,41.338 183.479,42.769 184.132 C 48.798 186.881,52.995 193.886,49.677 195.661 C 47.908 196.608,46.667 196.052,44.844 193.498 C 42.263 189.881,39.412 188.272,37.403 189.299 C 31.978 192.073,31.667 193.063,31.667 207.500 C 31.667 221.993,32.005 223.041,37.551 225.757 L 38.935 226.435 40.435 225.556 C 41.823 224.742,45.014 221.381,45.868 219.833 C 46.364 218.934,49.326 218.707,50.127 219.508 C 52.323 221.704,47.709 228.260,41.975 231.088 C 38.339 232.881,37.038 232.626,32.167 229.166 C 26.402 225.072,25.667 222.621,25.667 207.516 C 25.667 195.666,25.863 193.829,27.443 190.852 C 29.724 186.556,37.302 181.431,39.588 182.639 M80.819 183.818 C 88.597 187.551,91.000 191.814,91.000 201.880 C 91.000 210.790,91.631 210.333,79.318 210.333 L 70.333 210.333 70.337 214.583 C 70.341 220.601,71.954 223.529,76.475 225.725 L 77.961 226.447 79.231 225.605 C 80.973 224.449,82.603 222.738,83.358 221.272 C 85.029 218.030,89.667 218.170,89.667 221.462 C 89.667 224.864,81.308 232.333,77.500 232.333 C 74.367 232.333,67.811 227.120,65.918 223.125 L 64.833 220.833 64.731 208.414 C 64.586 190.736,65.559 188.138,73.908 183.891 C 77.544 182.042,77.128 182.047,80.819 183.818 M118.944 183.310 C 125.661 186.080,130.308 192.157,127.976 195.122 C 126.547 196.938,123.528 196.020,122.180 193.359 C 120.453 189.952,117.317 188.161,115.144 189.341 C 109.657 192.318,109.348 193.288,109.348 207.500 C 109.348 221.712,109.657 222.682,115.144 225.659 L 116.666 226.486 117.885 225.829 C 122.040 223.591,123.316 221.032,123.326 214.917 L 123.333 210.333 119.478 210.333 C 114.492 210.333,113.366 209.772,113.344 207.274 C 113.324 204.915,114.084 204.667,121.341 204.667 C 129.828 204.667,129.074 203.773,128.940 213.672 L 128.833 221.500 127.692 223.605 C 124.967 228.631,118.214 233.130,115.062 232.019 C 111.729 230.845,107.488 227.530,105.719 224.717 C 103.673 221.463,103.627 221.047,103.735 206.768 L 103.833 193.797 105.086 191.262 C 106.662 188.075,108.947 185.922,112.919 183.880 C 116.432 182.075,116.038 182.112,118.944 183.310 M158.536 183.793 C 163.234 186.106,166.001 188.962,167.353 192.891 C 168.449 196.076,168.322 208.375,167.182 209.515 L 166.364 210.333 157.348 210.333 L 148.333 210.333 148.341 214.917 C 148.349 219.833,148.666 221.095,150.388 223.052 C 151.548 224.371,154.299 226.333,154.988 226.333 C 156.114 226.333,159.599 223.694,160.569 222.107 C 162.628 218.736,165.336 217.794,166.976 219.878 C 169.284 222.813,160.377 232.333,155.323 232.333 C 152.317 232.333,145.810 227.228,143.919 223.385 L 142.833 221.180 142.833 207.333 L 142.833 193.486 143.921 191.277 C 145.321 188.432,148.334 185.567,151.507 184.064 C 152.786 183.458,154.058 182.829,154.333 182.667 C 155.146 182.188,155.432 182.265,158.536 183.793 M195.795 183.678 C 202.894 184.704,206.646 189.719,206.261 197.666 C 205.856 206.027,200.946 210.333,191.818 210.333 L 188.029 210.333 187.931 219.993 L 187.833 229.652 186.941 230.544 C 185.773 231.712,184.215 231.700,183.028 230.513 L 182.167 229.652 182.167 207.361 C 182.167 182.871,182.077 183.963,184.118 183.564 C 185.575 183.279,193.575 183.357,195.795 183.678 M76.000 189.526 C 71.627 192.009,70.341 194.482,70.337 200.417 L 70.333 204.667 77.500 204.667 L 84.667 204.667 84.667 200.727 C 84.667 194.649,83.592 192.226,79.778 189.699 C 77.901 188.456,77.886 188.455,76.000 189.526 M152.776 189.864 C 148.946 192.715,148.350 194.089,148.341 200.083 L 148.333 204.667 155.333 204.667 L 162.333 204.667 162.333 200.323 C 162.333 194.343,161.562 192.654,157.637 190.033 C 155.140 188.365,154.805 188.354,152.776 189.864 M188.000 197.000 L 188.000 204.667 191.583 204.659 C 198.019 204.646,200.659 202.295,200.665 196.573 C 200.670 191.419,198.130 189.333,191.847 189.333 L 188.000 189.333 188.000 197.000 M84.250 239.198 C 86.289 241.480,85.374 242.690,78.995 246.146 C 72.770 249.518,70.333 249.426,70.333 245.819 C 70.333 243.741,70.953 243.221,76.670 240.505 C 82.239 237.859,82.945 237.737,84.250 239.198 M41.421 255.980 C 48.801 259.755,52.320 264.475,49.976 267.455 C 48.588 269.219,46.909 268.664,44.721 265.718 C 41.880 261.893,39.287 260.573,37.115 261.846 C 31.740 264.996,31.667 265.240,31.667 280.040 L 31.667 292.203 32.608 293.685 C 34.595 296.812,38.285 299.160,39.878 298.312 C 44.118 296.053,45.659 293.061,45.663 287.083 L 45.667 282.667 41.741 282.667 C 36.590 282.667,35.131 281.570,36.354 278.617 C 36.957 277.160,37.735 277.000,44.214 277.000 L 50.051 277.000 51.050 277.999 L 52.048 278.997 51.941 285.924 L 51.833 292.851 50.744 295.061 C 48.599 299.415,41.872 304.667,38.440 304.667 C 36.930 304.667,32.393 302.015,30.217 299.861 C 25.922 295.608,25.587 294.019,25.727 278.534 L 25.833 266.797 27.080 264.275 C 28.902 260.591,31.217 258.374,35.759 255.962 C 38.708 254.397,38.322 254.396,41.421 255.980 M80.780 256.243 C 84.746 258.290,88.067 261.487,89.697 264.825 L 90.833 267.151 90.949 273.098 C 91.148 283.287,91.900 282.664,79.417 282.665 L 70.333 282.667 70.333 286.711 C 70.333 291.592,70.689 292.916,72.562 294.999 C 76.694 299.594,79.539 299.426,82.889 294.390 C 86.199 289.415,91.575 290.927,88.956 296.097 C 86.977 300.003,80.726 304.667,77.470 304.667 C 74.115 304.667,67.823 299.550,65.759 295.143 L 64.833 293.167 64.833 279.833 C 64.833 266.732,64.846 266.472,65.579 264.884 C 67.330 261.089,70.269 258.235,74.833 255.895 C 77.727 254.412,77.172 254.380,80.780 256.243 M157.846 255.876 C 162.527 258.314,165.189 260.782,166.902 264.269 L 167.833 266.167 167.930 283.833 C 167.983 293.550,167.940 301.847,167.835 302.272 C 167.553 303.406,165.558 304.174,164.274 303.642 C 162.434 302.880,162.333 302.279,162.333 292.017 L 162.333 282.667 155.333 282.667 L 148.333 282.667 148.333 292.017 C 148.333 303.214,147.871 304.650,144.532 303.812 C 142.605 303.328,142.641 303.732,142.742 284.121 L 142.833 266.152 143.929 263.926 C 145.317 261.108,148.471 258.133,152.167 256.155 C 155.442 254.402,155.056 254.421,157.846 255.876 M121.833 256.990 C 126.533 259.308,128.167 262.405,128.167 269.000 C 128.167 275.513,126.344 279.109,122.155 280.860 C 121.166 281.273,121.055 281.433,121.309 282.084 C 121.470 282.496,123.116 286.540,124.967 291.071 C 128.387 299.439,128.701 300.655,127.862 302.278 C 126.857 304.221,123.735 304.395,123.005 302.550 C 122.849 302.156,122.355 300.858,121.907 299.667 C 121.459 298.475,119.782 294.162,118.181 290.083 L 115.270 282.667 112.635 282.667 L 110.000 282.667 110.000 292.355 C 110.000 298.127,109.866 302.294,109.669 302.662 C 108.803 304.280,105.602 304.082,104.677 302.352 C 103.893 300.887,104.238 257.877,105.042 256.855 L 105.751 255.954 112.959 256.061 C 119.836 256.163,120.243 256.206,121.833 256.990 M187.046 256.637 L 187.833 257.274 187.927 277.612 L 188.020 297.949 194.503 298.058 L 200.986 298.167 201.882 299.063 C 203.078 300.260,203.078 301.740,201.881 302.937 L 200.985 303.833 192.335 303.833 C 183.779 303.833,183.677 303.825,182.926 303.074 L 182.167 302.315 182.066 281.074 C 181.962 259.176,182.022 257.359,182.877 256.504 C 183.607 255.774,186.078 255.853,187.046 256.637 M231.221 256.715 C 233.647 257.623,236.042 259.840,237.246 262.292 L 238.167 264.167 238.266 278.942 C 238.388 296.961,238.119 298.285,233.694 301.527 C 230.068 304.183,217.842 305.176,215.658 302.992 C 214.717 302.051,214.615 257.644,215.552 256.610 C 216.447 255.620,228.511 255.702,231.221 256.715 M76.000 261.860 C 71.627 264.342,70.341 266.815,70.337 272.750 L 70.333 277.000 77.500 277.000 L 84.667 277.000 84.665 273.083 C 84.662 267.218,83.604 264.750,80.026 262.258 C 77.887 260.769,77.916 260.772,76.000 261.860 M153.333 261.806 C 149.381 264.405,148.333 266.644,148.333 272.489 L 148.333 277.000 155.333 277.000 L 162.333 277.000 162.326 272.583 C 162.316 266.574,161.213 264.418,156.838 261.854 C 155.085 260.826,154.829 260.823,153.333 261.806 M110.000 269.333 L 110.000 277.000 114.013 277.000 C 120.857 277.000,122.667 275.321,122.667 268.973 C 122.667 263.180,120.918 261.667,114.221 261.667 L 110.000 261.667 110.000 269.333 M220.667 279.833 L 220.667 298.000 224.538 298.000 C 228.967 298.000,230.215 297.549,231.672 295.424 L 232.500 294.216 232.599 280.692 C 232.738 261.907,232.633 261.667,224.344 261.667 L 220.667 261.667 220.667 279.833 M40.504 325.857 C 48.569 329.226,54.267 338.667,48.236 338.667 C 47.067 338.667,46.746 338.478,45.542 337.083 C 39.983 330.643,38.653 330.304,34.311 334.226 C 31.674 336.609,31.667 336.654,31.667 350.373 L 31.667 362.536 32.608 364.018 C 34.595 367.145,38.285 369.494,39.878 368.645 C 44.118 366.386,45.659 363.395,45.663 357.417 L 45.667 353.000 41.741 353.000 C 36.590 353.000,35.131 351.903,36.354 348.950 C 36.957 347.493,37.735 347.333,44.214 347.333 L 50.051 347.333 51.050 348.332 L 52.048 349.330 51.941 356.249 C 51.786 366.199,49.595 369.987,41.754 373.862 C 40.426 374.518,39.255 375.191,39.152 375.357 C 38.907 375.754,34.691 373.628,32.167 371.834 C 28.890 369.505,26.654 366.193,26.002 362.705 C 25.569 360.386,25.565 339.963,25.997 337.684 C 27.274 330.947,35.886 323.927,40.504 325.857 M81.116 326.745 C 84.791 328.655,88.248 332.041,89.742 335.195 L 90.833 337.500 90.833 350.184 L 90.833 362.868 89.587 365.390 C 88.019 368.563,84.903 371.610,81.331 373.463 C 79.957 374.176,78.599 374.961,78.313 375.207 C 76.651 376.640,67.912 370.002,65.918 365.791 L 64.833 363.500 64.833 350.160 L 64.833 336.819 65.971 334.493 C 67.452 331.465,70.417 328.560,73.899 326.725 C 77.162 325.005,77.770 325.007,81.116 326.745 M120.833 327.013 C 123.593 328.064,126.609 331.077,127.625 333.797 C 128.347 335.728,128.357 336.001,128.263 350.797 L 128.167 365.833 127.233 367.734 C 126.062 370.120,123.571 372.396,121.067 373.370 C 118.806 374.249,108.590 374.715,106.342 374.042 C 104.276 373.423,104.333 374.098,104.333 350.301 C 104.333 326.332,104.274 327.014,106.421 326.350 C 108.551 325.690,118.572 326.151,120.833 327.013 M167.048 326.897 C 167.349 327.158,170.799 334.068,174.714 342.252 L 181.833 357.131 182.000 342.649 C 182.171 327.777,182.242 327.029,183.518 326.539 C 184.753 326.065,186.223 326.339,187.025 327.193 L 187.833 328.053 187.931 349.277 C 188.049 374.902,188.076 374.700,184.632 374.238 C 182.688 373.977,183.022 374.544,175.309 358.376 L 168.167 343.402 168.080 358.152 C 167.995 372.589,167.979 372.916,167.303 373.527 C 166.207 374.519,164.115 374.367,163.131 373.224 L 162.333 372.296 162.333 350.281 L 162.333 328.267 163.478 327.122 C 164.699 325.901,165.817 325.831,167.048 326.897 M147.470 327.359 L 148.333 328.384 148.333 350.314 C 148.333 371.783,148.319 372.261,147.663 373.096 C 146.573 374.481,143.775 374.560,142.929 373.229 C 142.250 372.162,142.640 327.694,143.333 327.000 C 144.413 325.921,146.406 326.094,147.470 327.359 M76.000 332.193 C 70.681 335.212,70.341 336.281,70.337 349.961 C 70.333 363.083,70.322 363.022,73.152 365.837 C 77.035 369.699,78.185 369.766,81.691 366.336 C 84.593 363.496,84.667 363.095,84.667 350.167 C 84.667 336.501,84.343 335.334,79.729 332.373 C 77.783 331.124,77.874 331.129,76.000 332.193 M110.000 350.167 L 110.000 368.333 114.250 368.328 C 122.712 368.317,122.654 368.441,122.661 350.212 C 122.668 331.975,122.680 332.000,114.221 332.000 L 110.000 332.000 110.000 350.167 " stroke="none" fill="#04a4dc" fill-rule="evenodd"></path><path id="path2" d="M295.667 44.167 C 294.857 44.992,294.270 45.667,294.361 45.667 C 294.453 45.667,295.190 44.992,296.000 44.167 C 296.810 43.342,297.397 42.667,297.305 42.667 C 297.214 42.667,296.476 43.342,295.667 44.167 M336.607 107.917 C 342.166 107.968,351.166 107.968,356.607 107.916 C 362.048 107.865,357.500 107.823,346.500 107.823 C 335.500 107.823,331.048 107.865,336.607 107.917 M375.490 138.333 C 375.490 150.158,375.532 154.996,375.583 149.083 C 375.634 143.171,375.634 133.496,375.583 127.583 C 375.532 121.671,375.490 126.508,375.490 138.333 M80.750 165.896 C 81.071 165.980,81.596 165.980,81.917 165.896 C 82.237 165.813,81.975 165.744,81.333 165.744 C 80.692 165.744,80.429 165.813,80.750 165.896 M309.500 177.000 C 310.216 177.733,310.877 178.333,310.969 178.333 C 311.060 178.333,310.549 177.733,309.833 177.000 C 309.117 176.267,308.456 175.667,308.365 175.667 C 308.273 175.667,308.784 176.267,309.500 177.000 M46.333 186.438 C 46.333 186.495,46.821 186.983,47.417 187.521 L 48.500 188.500 47.521 187.417 C 46.608 186.407,46.333 186.180,46.333 186.438 M359.479 191.417 L 358.500 192.500 359.583 191.521 C 360.593 190.608,360.820 190.333,360.562 190.333 C 360.505 190.333,360.017 190.821,359.479 191.417 M64.817 207.500 C 64.817 214.100,64.862 216.847,64.916 213.605 C 64.971 210.363,64.971 204.963,64.916 201.605 C 64.862 198.247,64.817 200.900,64.817 207.500 M90.804 202.000 C 90.804 205.208,90.854 206.521,90.915 204.917 C 90.976 203.313,90.976 200.688,90.915 199.083 C 90.854 197.479,90.804 198.792,90.804 202.000 M148.130 200.500 C 148.130 202.883,148.183 203.815,148.247 202.569 C 148.312 201.324,148.311 199.374,148.246 198.236 C 148.182 197.098,148.129 198.117,148.130 200.500 M123.464 214.667 C 123.464 217.142,123.516 218.154,123.581 216.917 C 123.645 215.679,123.645 213.654,123.581 212.417 C 123.516 211.179,123.464 212.192,123.464 214.667 M148.130 214.500 C 148.130 216.883,148.183 217.815,148.247 216.569 C 148.312 215.324,148.311 213.374,148.246 212.236 C 148.182 211.098,148.129 212.117,148.130 214.500 M111.930 261.580 C 113.083 261.646,114.883 261.645,115.930 261.579 C 116.977 261.513,116.033 261.460,113.833 261.461 C 111.633 261.461,110.777 261.515,111.930 261.580 M222.250 261.579 C 223.213 261.646,224.787 261.646,225.750 261.579 C 226.713 261.512,225.925 261.457,224.000 261.457 C 222.075 261.457,221.287 261.512,222.250 261.579 M122.773 269.000 C 122.773 270.192,122.834 270.679,122.908 270.083 C 122.982 269.487,122.982 268.512,122.908 267.917 C 122.834 267.321,122.773 267.808,122.773 269.000 M64.817 280.000 C 64.817 286.508,64.862 289.171,64.916 285.917 C 64.971 282.663,64.971 277.337,64.916 274.083 C 64.862 270.829,64.817 273.492,64.817 280.000 M90.804 274.333 C 90.804 277.542,90.854 278.854,90.915 277.250 C 90.976 275.646,90.976 273.021,90.915 271.417 C 90.854 269.813,90.804 271.125,90.804 274.333 M148.130 272.833 C 148.130 275.217,148.183 276.148,148.247 274.903 C 148.312 273.658,148.311 271.708,148.246 270.569 C 148.182 269.431,148.129 270.450,148.130 272.833 M148.147 292.000 C 148.147 297.225,148.193 299.362,148.249 296.750 C 148.306 294.137,148.306 289.862,148.249 287.250 C 148.193 284.637,148.147 286.775,148.147 292.000 M68.000 298.771 C 68.000 298.828,68.487 299.316,69.083 299.854 L 70.167 300.833 69.188 299.750 C 68.275 298.740,68.000 298.513,68.000 298.771 M38.083 304.563 C 38.404 304.647,38.929 304.647,39.250 304.563 C 39.571 304.479,39.308 304.411,38.667 304.411 C 38.025 304.411,37.762 304.479,38.083 304.563 M76.750 304.563 C 77.071 304.647,77.596 304.647,77.917 304.563 C 78.237 304.479,77.975 304.411,77.333 304.411 C 76.692 304.411,76.429 304.479,76.750 304.563 M148.157 350.333 C 148.157 362.342,148.199 367.254,148.250 361.250 C 148.301 355.246,148.301 345.421,148.250 339.417 C 148.199 333.412,148.157 338.325,148.157 350.333 M122.818 350.333 C 122.818 357.575,122.862 360.537,122.916 356.917 C 122.970 353.296,122.970 347.371,122.916 343.750 C 122.862 340.129,122.818 343.092,122.818 350.333 M64.817 350.333 C 64.817 356.842,64.862 359.504,64.916 356.250 C 64.971 352.996,64.971 347.671,64.916 344.417 C 64.862 341.162,64.817 343.825,64.817 350.333 M90.816 350.167 C 90.816 356.400,90.861 358.903,90.916 355.729 C 90.971 352.554,90.971 347.454,90.916 344.395 C 90.861 341.336,90.816 343.933,90.816 350.167 " stroke="none" fill="#5bc7e7" fill-rule="evenodd"></path><path id="path3" d="M359.986 44.750 C 361.367 46.222,361.667 46.486,361.667 46.236 C 361.667 46.183,360.954 45.470,360.083 44.653 L 358.500 43.167 359.986 44.750 M309.487 58.750 L 307.833 60.500 309.583 58.846 C 311.209 57.309,311.486 57.000,311.237 57.000 C 311.185 57.000,310.397 57.788,309.487 58.750 M317.411 118.000 C 317.411 118.642,317.479 118.904,317.563 118.583 C 317.647 118.263,317.647 117.737,317.563 117.417 C 317.479 117.096,317.411 117.358,317.411 118.000 M146.649 187.583 L 145.500 188.833 146.750 187.685 C 147.913 186.615,148.153 186.333,147.899 186.333 C 147.843 186.333,147.281 186.896,146.649 187.583 M293.333 189.104 C 293.333 189.162,293.821 189.649,294.417 190.188 L 295.500 191.167 294.521 190.083 C 293.608 189.074,293.333 188.847,293.333 189.104 M81.000 190.438 C 81.000 190.495,81.487 190.983,82.083 191.521 L 83.167 192.500 82.188 191.417 C 81.275 190.407,81.000 190.180,81.000 190.438 M206.095 196.500 C 206.098 197.417,206.163 197.752,206.239 197.245 C 206.316 196.739,206.314 195.989,206.235 195.579 C 206.156 195.169,206.093 195.583,206.095 196.500 M47.750 195.896 C 48.071 195.980,48.596 195.980,48.917 195.896 C 49.237 195.813,48.975 195.744,48.333 195.744 C 47.692 195.744,47.429 195.813,47.750 195.896 M103.817 207.500 C 103.817 214.100,103.862 216.847,103.916 213.605 C 103.971 210.363,103.971 204.963,103.916 201.605 C 103.862 198.247,103.817 200.900,103.817 207.500 M125.417 195.896 C 125.737 195.980,126.263 195.980,126.583 195.896 C 126.904 195.813,126.642 195.744,126.000 195.744 C 125.358 195.744,125.096 195.813,125.417 195.896 M162.405 200.243 L 162.333 204.653 155.250 204.750 L 148.167 204.847 155.260 204.924 C 160.844 204.984,162.390 204.907,162.521 204.565 C 162.613 204.326,162.641 202.263,162.583 199.982 L 162.477 195.833 162.405 200.243 M109.150 207.500 C 109.150 213.733,109.195 216.236,109.250 213.062 C 109.304 209.888,109.304 204.788,109.249 201.729 C 109.194 198.670,109.150 201.267,109.150 207.500 M73.732 204.915 C 75.692 204.974,78.992 204.974,81.065 204.916 C 83.138 204.857,81.533 204.809,77.500 204.809 C 73.467 204.808,71.771 204.856,73.732 204.915 M118.250 204.915 C 119.946 204.976,122.721 204.976,124.417 204.915 C 126.112 204.855,124.725 204.805,121.333 204.805 C 117.942 204.805,116.554 204.855,118.250 204.915 M189.250 204.912 C 190.213 204.980,191.787 204.980,192.750 204.912 C 193.713 204.845,192.925 204.790,191.000 204.790 C 189.075 204.790,188.287 204.845,189.250 204.912 M74.770 210.249 C 77.302 210.306,81.352 210.306,83.770 210.249 C 86.188 210.192,84.117 210.146,79.167 210.146 C 74.217 210.146,72.238 210.193,74.770 210.249 M117.583 210.247 C 118.729 210.312,120.604 210.312,121.750 210.247 C 122.896 210.182,121.958 210.128,119.667 210.128 C 117.375 210.128,116.438 210.182,117.583 210.247 M152.770 210.249 C 155.302 210.306,159.352 210.306,161.770 210.249 C 164.188 210.192,162.117 210.146,157.167 210.146 C 152.217 210.146,150.238 210.193,152.770 210.249 M189.596 210.247 C 190.749 210.312,192.549 210.312,193.596 210.246 C 194.643 210.180,193.700 210.127,191.500 210.127 C 189.300 210.128,188.443 210.182,189.596 210.247 M47.583 219.235 C 47.996 219.315,48.671 219.315,49.083 219.235 C 49.496 219.156,49.158 219.091,48.333 219.091 C 47.508 219.091,47.171 219.156,47.583 219.235 M86.250 219.235 C 86.662 219.315,87.337 219.315,87.750 219.235 C 88.162 219.156,87.825 219.091,87.000 219.091 C 86.175 219.091,85.837 219.156,86.250 219.235 M163.917 219.235 C 164.329 219.315,165.004 219.315,165.417 219.235 C 165.829 219.156,165.492 219.091,164.667 219.091 C 163.842 219.091,163.504 219.156,163.917 219.235 M50.417 221.500 C 50.421 222.233,50.489 222.494,50.569 222.079 C 50.649 221.665,50.646 221.065,50.562 220.746 C 50.479 220.427,50.414 220.767,50.417 221.500 M42.812 223.750 L 41.833 224.833 42.917 223.854 C 43.926 222.942,44.153 222.667,43.896 222.667 C 43.838 222.667,43.351 223.154,42.812 223.750 M104.491 279.667 C 104.491 291.675,104.532 296.587,104.583 290.583 C 104.634 284.579,104.634 274.754,104.583 268.750 C 104.532 262.746,104.491 267.658,104.491 279.667 M146.649 260.250 L 145.500 261.500 146.750 260.351 C 147.913 259.282,148.153 259.000,147.899 259.000 C 147.843 259.000,147.281 259.563,146.649 260.250 M162.667 259.104 C 162.667 259.162,163.154 259.649,163.750 260.188 L 164.833 261.167 163.854 260.083 C 162.942 259.074,162.667 258.847,162.667 259.104 M46.667 259.438 C 46.667 259.495,47.154 259.983,47.750 260.521 L 48.833 261.500 47.854 260.417 C 46.942 259.407,46.667 259.180,46.667 259.438 M85.333 259.438 C 85.333 259.495,85.821 259.983,86.417 260.521 L 87.500 261.500 86.521 260.417 C 85.608 259.407,85.333 259.180,85.333 259.438 M220.489 279.833 C 220.489 290.100,220.531 294.348,220.583 289.274 C 220.635 284.199,220.635 275.799,220.583 270.607 C 220.531 265.415,220.489 269.567,220.489 279.833 M109.824 269.500 L 109.833 277.167 113.751 277.183 L 117.668 277.200 113.840 277.089 L 110.012 276.979 109.914 269.406 L 109.815 261.833 109.824 269.500 M33.812 264.083 L 32.833 265.167 33.917 264.188 C 34.512 263.649,35.000 263.162,35.000 263.104 C 35.000 262.847,34.725 263.074,33.812 264.083 M50.417 265.167 C 50.421 265.900,50.489 266.161,50.569 265.746 C 50.649 265.331,50.646 264.731,50.562 264.413 C 50.479 264.094,50.414 264.433,50.417 265.167 M238.153 279.833 C 238.153 287.533,238.196 290.636,238.250 286.728 C 238.303 282.819,238.303 276.519,238.250 272.728 C 238.196 268.936,238.152 272.133,238.153 279.833 M232.819 279.833 C 232.819 287.167,232.863 290.119,232.916 286.394 C 232.970 282.670,232.970 276.670,232.916 273.061 C 232.862 269.453,232.818 272.500,232.819 279.833 M162.405 272.577 L 162.333 276.987 155.083 277.084 L 147.833 277.180 155.094 277.257 C 160.814 277.317,162.390 277.241,162.521 276.898 C 162.613 276.659,162.641 274.596,162.583 272.315 L 162.477 268.167 162.405 272.577 M41.100 277.248 C 42.713 277.310,45.263 277.309,46.766 277.248 C 48.270 277.186,46.950 277.136,43.833 277.136 C 40.717 277.137,39.487 277.187,41.100 277.248 M73.732 277.249 C 75.692 277.307,78.992 277.308,81.065 277.249 C 83.138 277.190,81.533 277.142,77.500 277.142 C 73.467 277.142,71.771 277.190,73.732 277.249 M51.805 285.333 C 51.805 288.725,51.855 290.112,51.915 288.417 C 51.976 286.721,51.976 283.946,51.915 282.250 C 51.855 280.554,51.805 281.942,51.805 285.333 M45.795 286.667 C 45.795 288.958,45.848 289.896,45.913 288.750 C 45.979 287.604,45.979 285.729,45.913 284.583 C 45.848 283.438,45.795 284.375,45.795 286.667 M109.814 292.167 C 109.814 297.483,109.860 299.612,109.916 296.896 C 109.972 294.181,109.972 289.831,109.916 287.230 C 109.860 284.628,109.814 286.850,109.814 292.167 M162.480 292.000 C 162.480 297.225,162.526 299.362,162.583 296.750 C 162.639 294.137,162.639 289.862,162.583 287.250 C 162.526 284.637,162.480 286.775,162.480 292.000 M104.491 350.333 C 104.491 362.342,104.532 367.254,104.583 361.250 C 104.634 355.246,104.634 345.421,104.583 339.417 C 104.532 333.412,104.491 338.325,104.491 350.333 M162.491 350.167 C 162.491 362.083,162.532 366.910,162.583 360.892 C 162.634 354.875,162.634 345.125,162.583 339.226 C 162.532 333.327,162.490 338.250,162.491 350.167 M85.333 329.771 C 85.333 329.828,85.821 330.316,86.417 330.854 L 87.500 331.833 86.521 330.750 C 85.608 329.740,85.333 329.513,85.333 329.771 M109.822 350.333 C 109.822 360.508,109.865 364.671,109.916 359.583 C 109.968 354.496,109.968 346.171,109.916 341.083 C 109.865 335.996,109.822 340.158,109.822 350.333 M42.000 333.104 C 42.000 333.162,42.487 333.649,43.083 334.188 L 44.167 335.167 43.188 334.083 C 42.275 333.074,42.000 332.847,42.000 333.104 M33.812 334.417 L 32.833 335.500 33.917 334.521 C 34.926 333.608,35.153 333.333,34.896 333.333 C 34.838 333.333,34.351 333.821,33.812 334.417 M47.750 338.563 C 48.071 338.647,48.596 338.647,48.917 338.563 C 49.237 338.479,48.975 338.411,48.333 338.411 C 47.692 338.411,47.429 338.479,47.750 338.563 M41.083 347.582 C 42.687 347.643,45.312 347.643,46.917 347.582 C 48.521 347.520,47.208 347.470,44.000 347.470 C 40.792 347.470,39.479 347.520,41.083 347.582 M51.805 355.667 C 51.805 359.058,51.855 360.446,51.915 358.750 C 51.976 357.054,51.976 354.279,51.915 352.583 C 51.855 350.887,51.805 352.275,51.805 355.667 M41.823 352.911 L 45.646 353.021 45.757 357.094 L 45.867 361.167 45.850 357.000 L 45.833 352.833 41.916 352.817 L 37.999 352.800 41.823 352.911 M86.151 369.750 L 84.833 371.167 86.250 369.849 C 87.567 368.624,87.820 368.333,87.568 368.333 C 87.513 368.333,86.876 368.971,86.151 369.750 " stroke="none" fill="#9eddf1" fill-rule="evenodd"></path><path id="path4" d="M279.828 118.167 C 279.828 141.083,279.868 150.409,279.917 138.891 C 279.965 127.372,279.965 108.622,279.917 97.224 C 279.868 85.826,279.828 95.250,279.828 118.167 M72.921 176.236 C 73.335 176.315,73.935 176.312,74.254 176.229 C 74.573 176.146,74.233 176.080,73.500 176.084 C 72.767 176.088,72.506 176.156,72.921 176.236 M345.479 177.083 L 344.500 178.167 345.583 177.188 C 346.593 176.275,346.820 176.000,346.562 176.000 C 346.505 176.000,346.017 176.487,345.479 177.083 M187.099 183.581 C 188.528 183.644,190.778 183.644,192.099 183.581 C 193.419 183.517,192.250 183.466,189.500 183.467 C 186.750 183.467,185.669 183.519,187.099 183.581 M182.157 207.167 C 182.157 219.083,182.199 223.910,182.250 217.892 C 182.301 211.875,182.301 202.125,182.250 196.226 C 182.199 190.327,182.157 195.250,182.157 207.167 M187.816 189.424 C 187.727 189.658,187.697 193.220,187.750 197.341 L 187.847 204.833 187.923 197.095 L 188.000 189.357 191.417 189.249 L 194.833 189.141 191.406 189.070 C 188.887 189.019,187.936 189.112,187.816 189.424 M25.817 207.500 C 25.817 213.917,25.862 216.494,25.916 213.228 C 25.971 209.963,25.971 204.713,25.916 201.562 C 25.861 198.411,25.817 201.083,25.817 207.500 M31.483 207.500 C 31.483 213.733,31.528 216.236,31.583 213.062 C 31.638 209.888,31.638 204.788,31.583 201.729 C 31.528 198.670,31.483 201.267,31.483 207.500 M187.814 219.667 C 187.814 224.892,187.860 227.029,187.916 224.417 C 187.972 221.804,187.972 217.529,187.916 214.917 C 187.860 212.304,187.814 214.442,187.814 219.667 M37.921 232.236 C 38.335 232.315,38.935 232.312,39.254 232.229 C 39.573 232.146,39.233 232.080,38.500 232.084 C 37.767 232.088,37.506 232.156,37.921 232.236 M76.921 232.236 C 77.335 232.315,77.935 232.312,78.254 232.229 C 78.573 232.146,78.233 232.080,77.500 232.084 C 76.767 232.088,76.506 232.156,76.921 232.236 M115.750 232.230 C 116.071 232.314,116.596 232.314,116.917 232.230 C 117.237 232.146,116.975 232.077,116.333 232.077 C 115.692 232.077,115.429 232.146,115.750 232.230 M154.750 232.230 C 155.071 232.314,155.596 232.314,155.917 232.230 C 156.237 232.146,155.975 232.077,155.333 232.077 C 154.692 232.077,154.429 232.146,154.750 232.230 M182.157 279.833 C 182.157 291.750,182.199 296.577,182.250 290.559 C 182.301 284.542,182.301 274.792,182.250 268.892 C 182.199 262.993,182.157 267.917,182.157 279.833 M187.829 278.167 L 187.833 298.167 193.833 298.178 L 199.833 298.189 193.919 298.087 L 188.005 297.985 187.915 278.076 L 187.825 258.167 187.829 278.167 M150.812 263.750 L 149.833 264.833 150.917 263.854 C 151.926 262.942,152.153 262.667,151.896 262.667 C 151.838 262.667,151.351 263.154,150.812 263.750 M25.817 279.833 C 25.817 286.250,25.862 288.828,25.916 285.562 C 25.971 282.296,25.971 277.046,25.916 273.895 C 25.861 270.744,25.817 273.417,25.817 279.833 M31.483 279.833 C 31.483 286.067,31.528 288.570,31.583 285.395 C 31.638 282.221,31.638 277.121,31.583 274.062 C 31.528 271.003,31.483 273.600,31.483 279.833 M222.250 298.246 C 223.213 298.313,224.787 298.313,225.750 298.246 C 226.713 298.178,225.925 298.123,224.000 298.123 C 222.075 298.123,221.287 298.178,222.250 298.246 M29.000 298.771 C 29.000 298.828,29.488 299.316,30.083 299.854 L 31.167 300.833 30.188 299.750 C 29.275 298.740,29.000 298.513,29.000 298.771 M188.250 303.916 C 190.496 303.973,194.171 303.973,196.417 303.916 C 198.662 303.858,196.825 303.811,192.333 303.811 C 187.842 303.811,186.004 303.858,188.250 303.916 M219.583 303.915 C 221.096 303.976,223.571 303.976,225.083 303.915 C 226.596 303.853,225.358 303.802,222.333 303.802 C 219.308 303.802,218.071 303.853,219.583 303.915 M38.083 325.563 C 38.404 325.647,38.929 325.647,39.250 325.563 C 39.571 325.479,39.308 325.411,38.667 325.411 C 38.025 325.411,37.762 325.479,38.083 325.563 M76.921 325.569 C 77.335 325.649,77.935 325.646,78.254 325.562 C 78.573 325.479,78.233 325.414,77.500 325.417 C 76.767 325.421,76.506 325.489,76.921 325.569 M109.583 326.248 C 110.912 326.311,113.087 326.311,114.417 326.248 C 115.746 326.184,114.658 326.132,112.000 326.132 C 109.342 326.132,108.254 326.184,109.583 326.248 M181.924 343.032 C 181.874 350.933,181.944 357.571,182.078 357.782 C 182.213 357.994,182.325 351.529,182.328 343.417 C 182.331 335.304,182.261 328.667,182.174 328.667 C 182.086 328.667,181.973 335.131,181.924 343.032 M187.824 350.167 C 187.824 362.083,187.866 366.910,187.917 360.892 C 187.967 354.875,187.967 345.125,187.916 339.226 C 187.865 333.327,187.824 338.250,187.824 350.167 M111.762 331.913 C 112.823 331.980,114.473 331.979,115.429 331.912 C 116.385 331.845,115.517 331.791,113.500 331.791 C 111.483 331.792,110.701 331.847,111.762 331.913 M25.817 350.167 C 25.817 356.583,25.862 359.161,25.916 355.895 C 25.971 352.629,25.971 347.379,25.916 344.228 C 25.861 341.078,25.817 343.750,25.817 350.167 M31.483 350.167 C 31.483 356.400,31.528 358.903,31.583 355.729 C 31.638 352.554,31.638 347.454,31.583 344.395 C 31.528 341.336,31.483 343.933,31.483 350.167 M111.750 368.580 C 112.804 368.646,114.529 368.646,115.583 368.580 C 116.638 368.514,115.775 368.459,113.667 368.459 C 111.558 368.459,110.696 368.514,111.750 368.580 M109.433 374.248 C 111.046 374.310,113.596 374.309,115.100 374.248 C 116.603 374.186,115.283 374.136,112.167 374.136 C 109.050 374.137,107.820 374.187,109.433 374.248 M184.417 374.230 C 184.737 374.314,185.262 374.314,185.583 374.230 C 185.904 374.146,185.642 374.077,185.000 374.077 C 184.358 374.077,184.096 374.146,184.417 374.230 " stroke="none" fill="#34bce4" fill-rule="evenodd"></path></g></svg>